<?xml version="1.0" standalone="no"?>
<!DOCTYPE svg PUBLIC "-//W3C//DTD SVG 20010904//EN"
 "http://www.w3.org/TR/2001/REC-SVG-20010904/DTD/svg10.dtd">
<svg version="1.0" xmlns="http://www.w3.org/2000/svg"
 width="512.000000pt" height="512.000000pt" viewBox="0 0 512.000000 512.000000"
 preserveAspectRatio="xMidYMid meet">

<g transform="translate(0.000000,512.000000) scale(0.100000,-0.100000)"
fill="#000000" stroke="none">
<path d="M2320 5109 c-491 -47 -981 -246 -1366 -557 -599 -482 -954 -1224
-954 -1992 0 -577 204 -1155 568 -1606 482 -599 1224 -954 1992 -954 577 0
1155 204 1606 568 599 482 954 1224 954 1992 0 577 -204 1155 -568 1606 -433
538 -1071 879 -1767 944 -125 11 -340 11 -465 -1z m1081 -836 c75 -41 279
-297 279 -350 0 -47 -32 -92 -165 -230 -206 -216 -464 -443 -501 -443 -7 0
-20 8 -29 17 -33 32 -16 113 54 261 35 76 60 140 57 149 -8 20 -41 14 -144
-27 -321 -129 -570 -343 -692 -595 -51 -104 -60 -165 -33 -226 40 -89 97 -130
448 -319 467 -252 637 -408 728 -668 26 -73 31 -103 31 -183 1 -93 0 -98 -42
-181 -53 -109 -87 -139 -273 -245 -475 -271 -896 -410 -1259 -416 -162 -2
-221 14 -289 81 -37 35 -53 61 -65 101 -29 98 -15 213 34 281 18 25 18 25 -31
73 -88 86 -89 165 -2 258 145 155 415 248 812 279 223 18 293 11 394 -38 45
-21 104 -56 130 -76 l48 -37 32 20 c105 65 116 126 38 202 -51 49 -178 116
-496 260 -77 35 -171 84 -210 110 -173 113 -297 308 -352 553 -24 108 -21 310
6 411 85 316 316 543 800 784 137 68 327 150 443 191 110 39 182 40 249 3z"/>
<path d="M2391 1569 c-80 -15 -245 -70 -288 -95 -48 -28 -73 -59 -73 -91 0
-35 41 -40 129 -14 75 22 284 117 371 169 l45 27 -45 7 c-57 8 -84 8 -139 -3z"/>
</g>
</svg>
